{
  "accessors": [
    {
      "bufferView": 2,
      "componentType": 5126,
      "count": 1152,
      "max": [
        91.14735412597656,
        735.6966552734375,
        91.16091918945313
      ],
      "min": [
        -91.84851837158203,
        0.0,
        -92.15898132324219
      ],
      "type": "VEC3"
    },
    {
      "bufferView": 2,
      "byteOffset": 13824,
      "componentType": 5126,
      "count": 1152,
      "max": [
        0.9996984004974365,
        0.8995139598846436,
        0.99982750415802
      ],
      "min": [
        -0.999889612197876,
        -0.858059287071228,
        -0.9991170763969421
      ],
      "type": "VEC3"
    },
    {
      "bufferView": 1,
      "componentType": 5126,
      "count": 1152,
      "max": [
        1.2096500396728516,
        3.531059980392456
      ],
      "min": [
        0.00023999999393709004,
        0.00023999999393709004
      ],
      "type": "VEC2"
    },
    {
      "bufferView": 0,
      "componentType": 5125,
      "count": 6192,
      "type": "SCALAR"
    },
    {
      "bufferView": 2,
      "byteOffset": 27648,
      "componentType": 5126,
      "count": 19462,
      "max": [
        239.86558532714844,
        932.9722290039063,
        251.1441192626953
      ],
      "min": [
        -250.4618377685547,
        3.1146998405456543,
        -249.0831298828125
      ],
      "type": "VEC3"
    },
    {
      "bufferView": 2,
      "byteOffset": 261192,
      "componentType": 5126,
      "count": 19462,
      "max": [
        0.9999135732650757,
        0.9998329877853394,
        0.9999934434890747
      ],
      "min": [
        -0.9997468590736389,
        -0.9979898929595947,
        -0.9999188184738159
      ],
      "type": "VEC3"
    },
    {
      "bufferView": 1,
      "byteOffset": 9216,
      "componentType": 5126,
      "count": 19462,
      "max": [
        0.9800699949264526,
        0.9995599985122681
      ],
      "min": [
        0.0003699999942909926,
        0.00011999999696854502
      ],
      "type": "VEC2"
    },
    {
      "bufferView": 0,
      "byteOffset": 24768,
      "componentType": 5125,
      "count": 62592,
      "type": "SCALAR"
    },
    {
      "bufferView": 2,
      "byteOffset": 494736,
      "componentType": 5126,
      "count": 3456,
      "max": [
        491.2420654296875,
        1089.5491943359375,
        507.8358154296875
      ],
      "min": [
        -506.2750244140625,
        314.1186828613281,
        -512.915771484375
      ],
      "type": "VEC3"
    },
    {
      "bufferView": 2,
      "byteOffset": 536208,
      "componentType": 5126,
      "count": 3456,
      "max": [
        0.9997865557670593,
        0.9999500513076782,
        0.9971566200256348
      ],
      "min": [
        -0.9998548030853271,
        -0.9994327425956726,
        -0.9978356957435608
      ],
      "type": "VEC3"
    },
    {
      "bufferView": 1,
      "byteOffset": 164912,
      "componentType": 5126,
      "count": 3456,
      "max": [
        0.8359100222587585,
        0.9999099969863892
      ],
      "min": [
        0.15238000452518463,
        0.5000900030136108
      ],
      "type": "VEC2"
    },
    {
      "bufferView": 0,
      "byteOffset": 275136,
      "componentType": 5125,
      "count": 12672,
      "type": "SCALAR"
    }
  ],
  "asset": {
    "extras": {
      "author": "Next Spring (https://sketchfab.com/NextSpring)",
      "license": "CC-BY-4.0 (http://creativecommons.org/licenses/by/4.0/)",
      "source": "https://sketchfab.com/3d-models/realistic-palm-tree-free-39052ea764c945858449e699318efa53",
      "title": "Realistic Palm Tree Free"
    },
    "generator": "Sketchfab-16.52.0",
    "version": "2.0"
  },
  "bufferViews": [
    {
      "buffer": 0,
      "byteLength": 325824,
      "name": "floatBufferViews",
      "target": 34963
    },
    {
      "buffer": 0,
      "byteLength": 192560,
      "byteOffset": 325824,
      "byteStride": 8,
      "name": "floatBufferViews",
      "target": 34962
    },
    {
      "buffer": 0,
      "byteLength": 577680,
      "byteOffset": 518384,
      "byteStride": 12,
      "name": "floatBufferViews",
      "target": 34962
    }
  ],
  "buffers": [
    {
      "byteLength": 1096064,
      "uri": "scene.bin"
    }
  ],
  "extensionsUsed": [
    "KHR_materials_specular"
  ],
  "images": [
    {
      "uri": "textures/HP_Palm3_Trunk_baseColor.png"
    },
    {
      "uri": "textures/HP_Palm3_Leaf_2_baseColor.png"
    },
    {
      "uri": "textures/HP_Palm3_Leaf_baseColor.png"
    }
  ],
  "materials": [
    {
      "doubleSided": true,
      "extensions": {
        "KHR_materials_specular": {
          "specularColorFactor": [
            1.0,
            1.0,
            1.0
          ],
          "specularFactor": 0.0
        }
      },
      "name": "HP_Palm3_Trunk",
      "pbrMetallicRoughness": {
        "baseColorTexture": {
          "index": 0
        },
        "metallicFactor": 0.0,
        "roughnessFactor": 0.6
      }
    },
    {
      "alphaCutoff": 0.323,
      "alphaMode": "MASK",
      "doubleSided": true,
      "extensions": {
        "KHR_materials_specular": {
          "specularColorFactor": [
            1.0,
            1.0,
            1.0
          ],
          "specularFactor": 0.0
        }
      },
      "name": "HP_Palm3_Leaf_2",
      "pbrMetallicRoughness": {
        "baseColorTexture": {
          "index": 1
        },
        "metallicFactor": 0.0,
        "roughnessFactor": 0.6
      }
    },
    {
      "alphaCutoff": 0.32,
      "alphaMode": "MASK",
      "doubleSided": true,
      "extensions": {
        "KHR_materials_specular": {
          "specularColorFactor": [
            1.0,
            1.0,
            1.0
          ],
          "specularFactor": 0.0
        }
      },
      "name": "HP_Palm3_Leaf",
      "pbrMetallicRoughness": {
        "baseColorTexture": {
          "index": 2
        },
        "metallicFactor": 0.0,
        "roughnessFactor": 0.6
      }
    }
  ],
  "meshes": [
    {
      "name": "_1_HP_Palm3_Trunk_0",
      "primitives": [
        {
          "attributes": {
            "NORMAL": 1,
            "POSITION": 0,
            "TEXCOORD_0": 2
          },
          "indices": 3,
          "material": 0,
          "mode": 4
        }
      ]
    },
    {
      "name": "_1_HP_Palm3_Leaf_2_0",
      "primitives": [
        {
          "attributes": {
            "NORMAL": 5,
            "POSITION": 4,
            "TEXCOORD_0": 6
          },
          "indices": 7,
          "material": 1,
          "mode": 4
        }
      ]
    },
    {
      "name": "_1_HP_Palm3_Leaf_0",
      "primitives": [
        {
          "attributes": {
            "NORMAL": 9,
            "POSITION": 8,
            "TEXCOORD_0": 10
          },
          "indices": 11,
          "material": 2,
          "mode": 4
        }
      ]
    }
  ],
  "nodes": [
    {
      "children": [
        1
      ],
      "matrix": [
        1.0,
        0.0,
        0.0,
        0.0,
        0.0,
        2.220446049250313e-16,
        -1.0,
        0.0,
        0.0,
        1.0,
        2.220446049250313e-16,
        0.0,
        0.0,
        0.0,
        0.0,
        1.0
      ],
      "name": "Sketchfab_model"
    },
    {
      "children": [
        2
      ],
      "matrix": [
        0.009999999776482582,
        0.0,
        0.0,
        0.0,
        0.0,
        0.0,
        0.009999999776482582,
        0.0,
        0.0,
        -0.009999999776482582,
        0.0,
        0.0,
        0.0,
        0.0,
        0.0,
        1.0
      ],
      "name": "HP_Palm3_1.fbx"
    },
    {
      "children": [
        3
      ],
      "name": "RootNode"
    },
    {
      "children": [
        4,
        5,
        6
      ],
      "name": "_1"
    },
    {
      "mesh": 0,
      "name": "_1_HP_Palm3_Trunk_0"
    },
    {
      "mesh": 1,
      "name": "_1_HP_Palm3_Leaf_2_0"
    },
    {
      "mesh": 2,
      "name": "_1_HP_Palm3_Leaf_0"
    }
  ],
  "samplers": [
    {
      "magFilter": 9729,
      "minFilter": 9987,
      "wrapS": 10497,
      "wrapT": 10497
    }
  ],
  "scene": 0,
  "scenes": [
    {
      "name": "Sketchfab_Scene",
      "nodes": [
        0
      ]
    }
  ],
  "textures": [
    {
      "sampler": 0,
      "source": 0
    },
    {
      "sampler": 0,
      "source": 1
    },
    {
      "sampler": 0,
      "source": 2
    }
  ]
}
