{
  "accessors": [
    {
      "bufferView": 2,
      "componentType": 5126,
      "count": 3500,
      "max": [
        1.0,
        1.0,
        1.0
      ],
      "min": [
        -1.0,
        -1.0,
        -1.0
      ],
      "type": "VEC3"
    },
    {
      "bufferView": 2,
      "byteOffset": 42000,
      "componentType": 5126,
      "count": 3500,
      "max": [
        0.9986582398414612,
        1.0,
        0.998658299446106
      ],
      "min": [
        -0.9986582398414612,
        -1.0,
        -0.998658299446106
      ],
      "type": "VEC3"
    },
    {
      "bufferView": 1,
      "componentType": 5126,
      "count": 3500,
      "max": [
        1.0,
        1.0
      ],
      "min": [
        0.0,
        0.0
      ],
      "type": "VEC2"
    },
    {
      "bufferView": 0,
      "componentType": 5125,
      "count": 7494,
      "type": "SCALAR"
    },
    {
      "bufferView": 2,
      "byteOffset": 84000,
      "componentType": 5126,
      "count": 500,
      "max": [
        0.7834588289260864,
        1.0,
        0.7834588289260864
      ],
      "min": [
        -0.7834588289260864,
        1.0,
        -0.7834588289260864
      ],
      "type": "VEC3"
    },
    {
      "bufferView": 2,
      "byteOffset": 90000,
      "componentType": 5126,
      "count": 500,
      "max": [
        2.781966372822353e-07,
        1.0,
        -0.0
      ],
      "min": [
        2.781966372822353e-07,
        1.0,
        -0.0
      ],
      "type": "VEC3"
    },
    {
      "bufferView": 1,
      "byteOffset": 28000,
      "componentType": 5126,
      "count": 500,
      "max": [
        0.4596084654331207,
        0.45960888266563416
      ],
      "min": [
        0.04039178788661957,
        0.04039181396365166
      ],
      "type": "VEC2"
    },
    {
      "bufferView": 0,
      "byteOffset": 29976,
      "componentType": 5125,
      "count": 1494,
      "type": "SCALAR"
    },
    {
      "bufferView": 2,
      "byteOffset": 96000,
      "componentType": 5126,
      "count": 5000,
      "max": [
        1.2673847675323486,
        -0.7811703681945801,
        1.2673847675323486
      ],
      "min": [
        -1.2673847675323486,
        -5.021168231964111,
        -1.2673847675323486
      ],
      "type": "VEC3"
    },
    {
      "bufferView": 2,
      "byteOffset": 156000,
      "componentType": 5126,
      "count": 5000,
      "max": [
        0.9995072484016418,
        1.0,
        0.9995071887969971
      ],
      "min": [
        -0.9995072484016418,
        -1.0,
        -0.9995071887969971
      ],
      "type": "VEC3"
    },
    {
      "bufferView": 1,
      "byteOffset": 32000,
      "componentType": 5126,
      "count": 5000,
      "max": [
        1.0,
        1.0
      ],
      "min": [
        0.0,
        0.0
      ],
      "type": "VEC2"
    },
    {
      "bufferView": 0,
      "byteOffset": 35952,
      "componentType": 5125,
      "count": 8988,
      "type": "SCALAR"
    },
    {
      "bufferView": 2,
      "byteOffset": 216000,
      "componentType": 5126,
      "count": 4000,
      "max": [
        1.2347670793533325,
        -1.841169834136963,
        1.2347670793533325
      ],
      "min": [
        -1.2347670793533325,
        -3.9611687660217285,
        -1.2347670793533325
      ],
      "type": "VEC3"
    },
    {
      "bufferView": 2,
      "byteOffset": 264000,
      "componentType": 5126,
      "count": 4000,
      "max": [
        0.9995071887969971,
        0.030756721273064613,
        0.9995071887969971
      ],
      "min": [
        -0.9995071887969971,
        0.03075597994029522,
        -0.9995071887969971
      ],
      "type": "VEC3"
    },
    {
      "bufferView": 1,
      "byteOffset": 72000,
      "componentType": 5126,
      "count": 4000,
      "max": [
        1.0,
        0.8750001192092896
      ],
      "min": [
        5.7746656239032745e-06,
        0.6249998807907104
      ],
      "type": "VEC2"
    },
    {
      "bufferView": 0,
      "byteOffset": 71904,
      "componentType": 5125,
      "count": 6000,
      "type": "SCALAR"
    }
  ],
  "asset": {
    "extras": {
      "author": "TheRealDigitalMaster (https://sketchfab.com/digitalmaster)",
      "license": "CC-BY-4.0 (http://creativecommons.org/licenses/by/4.0/)",
      "source": "https://sketchfab.com/3d-models/display-podium-5cfc90b0af8a4b0b9acd2524f829bb4a",
      "title": "Display Podium"
    },
    "generator": "Sketchfab-15.12.0",
    "version": "2.0"
  },
  "bufferViews": [
    {
      "buffer": 0,
      "byteLength": 95904,
      "name": "floatBufferViews",
      "target": 34963
    },
    {
      "buffer": 0,
      "byteLength": 104000,
      "byteOffset": 95904,
      "byteStride": 8,
      "name": "floatBufferViews",
      "target": 34962
    },
    {
      "buffer": 0,
      "byteLength": 312000,
      "byteOffset": 199904,
      "byteStride": 12,
      "name": "floatBufferViews",
      "target": 34962
    }
  ],
  "buffers": [
    {
      "byteLength": 511904,
      "uri": "scene.bin"
    }
  ],
  "images": [
    {
      "uri": "textures/Material.005_baseColor.png"
    },
    {
      "uri": "textures/Material.007_baseColor.png"
    }
  ],
  "materials": [
    {
      "doubleSided": true,
      "name": "Material.005",
      "pbrMetallicRoughness": {
        "baseColorTexture": {
          "index": 0
        },
        "metallicFactor": 0.0,
        "roughnessFactor": 0.5
      }
    },
    {
      "doubleSided": true,
      "emissiveFactor": [
        0.017657399999999986,
        0.15671000000000002,
        1.0
      ],
      "name": "Material.006",
      "pbrMetallicRoughness": {
        "baseColorFactor": [
          0.0,
          0.29038714120494324,
          1.0,
          1.0
        ],
        "metallicFactor": 0.0,
        "roughnessFactor": 0.5
      }
    },
    {
      "doubleSided": true,
      "name": "Material.007",
      "pbrMetallicRoughness": {
        "baseColorTexture": {
          "index": 1
        },
        "metallicFactor": 0.0,
        "roughnessFactor": 0.5
      }
    },
    {
      "doubleSided": true,
      "emissiveFactor": [
        0.008278100000000002,
        0.11579599999999968,
        1.0
      ],
      "name": "Material.008",
      "pbrMetallicRoughness": {
        "baseColorFactor": [
          0.0,
          0.8282921100667165,
          1.0,
          1.0
        ],
        "metallicFactor": 0.0,
        "roughnessFactor": 0.5
      }
    }
  ],
  "meshes": [
    {
      "name": "Object_0",
      "primitives": [
        {
          "attributes": {
            "NORMAL": 1,
            "POSITION": 0,
            "TEXCOORD_0": 2
          },
          "indices": 3,
          "material": 0,
          "mode": 4
        }
      ]
    },
    {
      "name": "Object_1",
      "primitives": [
        {
          "attributes": {
            "NORMAL": 5,
            "POSITION": 4,
            "TEXCOORD_0": 6
          },
          "indices": 7,
          "material": 1,
          "mode": 4
        }
      ]
    },
    {
      "name": "Object_2",
      "primitives": [
        {
          "attributes": {
            "NORMAL": 9,
            "POSITION": 8,
            "TEXCOORD_0": 10
          },
          "indices": 11,
          "material": 2,
          "mode": 4
        }
      ]
    },
    {
      "name": "Object_3",
      "primitives": [
        {
          "attributes": {
            "NORMAL": 13,
            "POSITION": 12,
            "TEXCOORD_0": 14
          },
          "indices": 15,
          "material": 3,
          "mode": 4
        }
      ]
    }
  ],
  "nodes": [
    {
      "children": [
        1
      ],
      "matrix": [
        1.0,
        0.0,
        0.0,
        0.0,
        0.0,
        2.220446049250313e-16,
        -1.0,
        0.0,
        0.0,
        1.0,
        2.220446049250313e-16,
        0.0,
        0.0,
        0.0,
        0.0,
        1.0
      ],
      "name": "Sketchfab_model"
    },
    {
      "children": [
        2
      ],
      "name": "root"
    },
    {
      "children": [
        3
      ],
      "matrix": [
        1.0,
        0.0,
        0.0,
        0.0,
        0.0,
        2.220446049250313e-16,
        1.0,
        0.0,
        0.0,
        -1.0,
        2.220446049250313e-16,
        0.0,
        0.0,
        0.0,
        0.0,
        1.0
      ],
      "name": "GLTF_SceneRootNode"
    },
    {
      "children": [
        4,
        5,
        6,
        7
      ],
      "matrix": [
        2.902965545654297,
        0.0,
        0.0,
        0.0,
        0.0,
        0.25404277443885803,
        0.0,
        0.0,
        0.0,
        0.0,
        2.902965545654297,
        0.0,
        -0.0003967471420764923,
        1.0970515012741089,
        -0.04190438985824585,
        1.0
      ],
      "name": "Display Podium_0"
    },
    {
      "mesh": 0,
      "name": "Object_4"
    },
    {
      "mesh": 1,
      "name": "Object_5"
    },
    {
      "mesh": 2,
      "name": "Object_6"
    },
    {
      "mesh": 3,
      "name": "Object_7"
    }
  ],
  "samplers": [
    {
      "magFilter": 9729,
      "minFilter": 9987,
      "wrapS": 10497,
      "wrapT": 10497
    }
  ],
  "scene": 0,
  "scenes": [
    {
      "name": "Sketchfab_Scene",
      "nodes": [
        0
      ]
    }
  ],
  "textures": [
    {
      "sampler": 0,
      "source": 0
    },
    {
      "sampler": 0,
      "source": 1
    }
  ]
}
